<?xml version="1.0" encoding="UTF-8"?>
<svg width="142px" height="143px" viewBox="0 0 142 143" version="1.1" xmlns="http://www.w3.org/2000/svg" xmlns:xlink="http://www.w3.org/1999/xlink">
    <!-- Generator: Sketch 46.2 (44496) - http://www.bohemiancoding.com/sketch -->
    <title>WHITE_LOGO_SYMBOL_V3</title>
    <desc>Created with Sketch.</desc>
    <defs>
        <path d="M29.1236458,29.1392803 L70.7288541,29.1392803 L70.7288541,70.7668236 L29.1236458,70.7668236 L29.1236458,29.1392803 Z M40.7731041,40.7949924 L40.7731041,59.1111115 L70.7288541,59.1111115 L70.7288541,40.7949924 L40.7731041,40.7949924 Z" id="path-1"></path>
    </defs>
    <g id="Logo_Symbols_v3" stroke="none" stroke-width="1" fill="none" fill-rule="evenodd">
        <g id="WHITE_LOGO_SYMBOL_V3">
            <g id="Group" transform="translate(71.710678, 71.710678) rotate(45.000000) translate(-71.710678, -71.710678) translate(21.710678, 21.710678)">
                <path d="M61.5757082,0 L99.8524999,0 L99.8524999,99.9061039 L61.5757082,99.9061039 L61.5757082,0 Z M73.2251666,11.6557121 L73.2251666,88.2503918 L99.8524999,88.2503918 L99.8524999,11.6557121 L73.2251666,11.6557121 Z" id="Combined-Shape" fill="#252525" transform="translate(80.714104, 49.953052) scale(-1, 1) translate(-80.714104, -49.953052) "></path>
                <path d="M0,0 L38.2767916,0 L38.2767916,99.9061039 L0,99.9061039 L0,0 Z M11.6494583,11.6557121 L11.6494583,88.2503918 L38.2767916,88.2503918 L38.2767916,11.6557121 L11.6494583,11.6557121 Z" id="Combined-Shape" fill="#2574D0"></path>
                <mask id="mask-2" fill="white">
                    <use xlink:href="#path-1"></use>
                </mask>
                <use id="Combined-Shape" fill="#252525" transform="translate(49.926250, 49.953052) rotate(180.000000) translate(-49.926250, -49.953052) " xlink:href="#path-1"></use>
            </g>
        </g>
    </g>
</svg>